<svg width="34" height="34" viewBox="0 0 34 34" fill="none" xmlns="http://www.w3.org/2000/svg">
<path d="M22.6667 32.2292H11.3333C3.1875 32.2292 3.1875 27.9083 3.1875 24.0833V22.6667C3.1875 19.5075 3.1875 15.9375 9.91667 15.9375C11.6025 15.9375 12.2258 16.3483 13.1042 17C13.1467 17.0425 13.2033 17.0708 13.2458 17.1275L14.6908 18.6575C15.9092 19.9467 18.1192 19.9467 19.3375 18.6575L20.7825 17.1275C20.825 17.085 20.8675 17.0425 20.9242 17C21.8025 16.3342 22.4258 15.9375 24.1117 15.9375C30.8408 15.9375 30.8408 19.5075 30.8408 22.6667V24.0833C30.8125 29.495 28.0783 32.2292 22.6667 32.2292ZM9.91667 18.0625C5.3125 18.0625 5.3125 19.5075 5.3125 22.6667V24.0833C5.3125 27.965 5.3125 30.1042 11.3333 30.1042H22.6667C26.8883 30.1042 28.6875 28.305 28.6875 24.0833V22.6667C28.6875 19.5075 28.6875 18.0625 24.0833 18.0625C23.0633 18.0625 22.8508 18.19 22.2417 18.6433L20.8675 20.1025C19.8475 21.1792 18.4733 21.7742 17 21.7742C15.5267 21.7742 14.1525 21.1792 13.1325 20.1025L11.7583 18.6433C11.1492 18.19 10.9367 18.0625 9.91667 18.0625Z" fill="#3AB75D"/>
<path d="M26.9163 18.0625C26.3355 18.0625 25.8538 17.5808 25.8538 17V8.49999C25.8538 5.34083 25.8538 3.89583 21.2497 3.89583H12.7497C8.14551 3.89583 8.14551 5.34083 8.14551 8.49999V17C8.14551 17.5808 7.66384 18.0625 7.08301 18.0625C6.50217 18.0625 6.02051 17.5808 6.02051 17V8.49999C6.02051 5.34083 6.02051 1.77083 12.7497 1.77083H21.2497C27.9788 1.77083 27.9788 5.34083 27.9788 8.49999V17C27.9788 17.5808 27.4972 18.0625 26.9163 18.0625Z" fill="#3AB75D"/>
<path d="M19.6628 14.1383H14.9453C14.3645 14.1383 13.8828 13.6567 13.8828 13.0758C13.8828 12.495 14.3645 12.0133 14.9453 12.0133H19.6628C20.2436 12.0133 20.7253 12.495 20.7253 13.0758C20.7253 13.6567 20.2578 14.1383 19.6628 14.1383Z" fill="#3AB75D"/>
<path d="M20.8529 9.88832H13.7695C13.1887 9.88832 12.707 9.40665 12.707 8.82582C12.707 8.24499 13.1887 7.76332 13.7695 7.76332H20.8529C21.4337 7.76332 21.9154 8.24499 21.9154 8.82582C21.9154 9.40665 21.4479 9.88832 20.8529 9.88832Z" fill="#3AB75D"/>
</svg>
