<svg width="39" height="38" viewBox="0 0 39 38" fill="none" xmlns="http://www.w3.org/2000/svg">
<path d="M19.6667 9.12637C13.8721 6.65805 10.5539 6.49447 5.62451 8.51694C4.76676 8.86887 4.229 9.72033 4.229 10.6475V25.2177C4.229 26.937 5.99894 28.0689 7.64225 27.5635C11.7778 26.2916 14.8933 26.7363 19.6667 28.8746C24.9487 31.3068 28.2278 31.5433 33.6476 29.465C34.5365 29.1242 35.1044 28.2559 35.1044 27.304V12.792C35.1044 11.0703 33.33 9.93888 31.6845 10.4453C27.6039 11.7012 24.4814 11.2694 19.6667 9.12637Z" fill="#043B56" stroke="#043B56" stroke-width="2.37503"/>
<circle cx="19.6666" cy="19.0002" r="4.75006" fill="#B3E4FB"/>
<path d="M8.979 11.8767C10.6763 11.1045 11.6997 10.9886 13.7291 11.8767" stroke="#B3E4FB" stroke-width="2.37503" stroke-linecap="round"/>
<path d="M25.6045 25.5022C27.3018 26.2744 28.3252 26.3903 30.3546 25.5022" stroke="#B3E4FB" stroke-width="2.37503" stroke-linecap="round"/>
</svg>
