<svg width="34" height="34" viewBox="0 0 34 34" fill="none" xmlns="http://www.w3.org/2000/svg">
<path d="M22.667 32.2292H11.3337C7.05533 32.2292 4.60449 29.7783 4.60449 25.5V11.6875C4.60449 7.22499 6.87116 4.95833 11.3337 4.95833C11.9145 4.95833 12.3962 5.43999 12.3962 6.02083C12.3962 6.58749 12.6228 7.12582 13.0195 7.52249C13.4162 7.91916 13.9545 8.14583 14.5212 8.14583H19.4795C20.6553 8.14583 21.6045 7.19666 21.6045 6.02083C21.6045 5.43999 22.0862 4.95833 22.667 4.95833C27.1295 4.95833 29.3962 7.22499 29.3962 11.6875V25.5C29.3962 29.7783 26.9453 32.2292 22.667 32.2292ZM10.4128 7.11167C8.17446 7.29583 6.72949 8.30166 6.72949 11.6875V25.5C6.72949 28.645 8.18866 30.1042 11.3337 30.1042H22.667C25.812 30.1042 27.2712 28.645 27.2712 25.5V11.6875C27.2712 8.30166 25.8262 7.31 23.5879 7.11167C23.1062 8.925 21.4487 10.2708 19.4795 10.2708H14.5212C13.3878 10.2708 12.3253 9.83165 11.5178 9.02415C10.9795 8.48582 10.6111 7.83417 10.4128 7.11167Z" fill="#3AB75D"/>
<path d="M19.4788 10.2708H14.5205C13.3872 10.2708 12.3247 9.83165 11.5172 9.02415C10.7097 8.21665 10.2705 7.15416 10.2705 6.02083C10.2705 3.68333 12.183 1.77083 14.5205 1.77083H19.4788C20.6122 1.77083 21.6747 2.21 22.4822 3.0175C23.2897 3.825 23.7288 4.88749 23.7288 6.02083C23.7288 8.35833 21.8163 10.2708 19.4788 10.2708ZM14.5205 3.89583C13.3447 3.89583 12.3955 4.84499 12.3955 6.02083C12.3955 6.58749 12.6222 7.12582 13.0188 7.52249C13.4155 7.91916 13.9538 8.14583 14.5205 8.14583H19.4788C20.6547 8.14583 21.6038 7.19666 21.6038 6.02083C21.6038 5.45416 21.3772 4.91583 20.9805 4.51916C20.5838 4.1225 20.0455 3.89583 19.4788 3.89583H14.5205Z" fill="#3AB75D"/>
<path d="M16.9997 19.4792H11.333C10.7522 19.4792 10.2705 18.9975 10.2705 18.4167C10.2705 17.8358 10.7522 17.3542 11.333 17.3542H16.9997C17.5805 17.3542 18.0622 17.8358 18.0622 18.4167C18.0622 18.9975 17.5805 19.4792 16.9997 19.4792Z" fill="#3AB75D"/>
<path d="M22.6663 25.1458H11.333C10.7522 25.1458 10.2705 24.6642 10.2705 24.0833C10.2705 23.5025 10.7522 23.0208 11.333 23.0208H22.6663C23.2472 23.0208 23.7288 23.5025 23.7288 24.0833C23.7288 24.6642 23.2472 25.1458 22.6663 25.1458Z" fill="#3AB75D"/>
</svg>
