<svg width="34" height="34" viewBox="0 0 34 34" fill="none" xmlns="http://www.w3.org/2000/svg">
<path d="M20.8245 32.2292H13.1745C6.17617 32.2292 3.20117 29.24 3.20117 22.2558V15.895C3.20117 15.3142 3.68284 14.8325 4.26367 14.8325C4.84451 14.8325 5.32617 15.3142 5.32617 15.895V22.2558C5.32617 28.05 7.38034 30.1042 13.1745 30.1042H20.8103C26.6045 30.1042 28.6587 28.05 28.6587 22.2558V15.895C28.6587 15.3142 29.1403 14.8325 29.7212 14.8325C30.302 14.8325 30.7837 15.3142 30.7837 15.895V22.2558C30.7978 29.24 27.8087 32.2292 20.8245 32.2292Z" fill="#3AB75D"/>
<path d="M16.9996 18.0625C15.4413 18.0625 14.0246 17.4533 13.0188 16.3342C12.0129 15.215 11.5454 13.7558 11.7013 12.1975L12.6504 2.73416C12.7071 2.19583 13.1604 1.77083 13.7129 1.77083H20.3288C20.8813 1.77083 21.3346 2.18166 21.3913 2.73416L22.3404 12.1975C22.4963 13.7558 22.0288 15.215 21.0229 16.3342C19.9746 17.4533 18.5579 18.0625 16.9996 18.0625ZM14.6621 3.89583L13.8121 12.41C13.7129 13.3592 13.9963 14.2517 14.5913 14.9033C15.7954 16.235 18.2038 16.235 19.4079 14.9033C20.0029 14.2375 20.2863 13.345 20.1871 12.41L19.3371 3.89583H14.6621Z" fill="#3AB75D"/>
<path d="M25.939 18.0625C23.0632 18.0625 20.499 15.7392 20.2015 12.8775L19.2098 2.94666C19.1815 2.64916 19.2807 2.35166 19.479 2.12499C19.6773 1.89833 19.9607 1.77083 20.2723 1.77083H24.5932C28.7582 1.77083 30.699 3.51333 31.2798 7.79166L31.6765 11.73C31.8465 13.4017 31.3365 14.9883 30.2457 16.1925C29.1548 17.3967 27.6248 18.0625 25.939 18.0625ZM21.4482 3.89583L22.3265 12.665C22.5107 14.4358 24.154 15.9375 25.939 15.9375C27.0157 15.9375 27.979 15.5267 28.6732 14.7758C29.3532 14.025 29.6648 13.0192 29.5657 11.9425L29.169 8.04666C28.7298 4.84499 27.6957 3.89583 24.5932 3.89583H21.4482V3.89583Z" fill="#3AB75D"/>
<path d="M7.99027 18.0625C6.30444 18.0625 4.77444 17.3967 3.68361 16.1925C2.59277 14.9883 2.08277 13.4017 2.25277 11.73L2.63527 7.83416C3.23027 3.51333 5.17111 1.77083 9.33611 1.77083H13.6569C13.9544 1.77083 14.2378 1.89833 14.4503 2.12499C14.6628 2.35166 14.7478 2.64916 14.7194 2.94666L13.7278 12.8775C13.4303 15.7392 10.8661 18.0625 7.99027 18.0625ZM9.33611 3.89583C6.23361 3.89583 5.19944 4.83083 4.74611 8.07499L4.36361 11.9425C4.25027 13.0192 4.57611 14.025 5.25611 14.7758C5.93611 15.5267 6.89944 15.9375 7.99027 15.9375C9.77527 15.9375 11.4328 14.4358 11.6028 12.665L12.4811 3.89583H9.33611V3.89583Z" fill="#3AB75D"/>
<path d="M20.5413 32.2292H13.458C12.8772 32.2292 12.3955 31.7475 12.3955 31.1667V27.625C12.3955 24.65 14.0247 23.0208 16.9997 23.0208C19.9747 23.0208 21.6038 24.65 21.6038 27.625V31.1667C21.6038 31.7475 21.1222 32.2292 20.5413 32.2292ZM14.5205 30.1042H19.4788V27.625C19.4788 25.84 18.7847 25.1458 16.9997 25.1458C15.2147 25.1458 14.5205 25.84 14.5205 27.625V30.1042Z" fill="#3AB75D"/>
</svg>
