<svg width="31" height="29" viewBox="0 0 31 29" fill="none" xmlns="http://www.w3.org/2000/svg">
<path d="M3.44082 28.6663C2.72679 28.6663 2.11382 28.4103 1.6019 27.8983C1.08996 27.3864 0.833984 26.7735 0.833984 26.0594V2.93984C0.833984 2.22581 1.08996 1.61284 1.6019 1.10093C2.11382 0.588982 2.72679 0.333008 3.44082 0.333008H26.5604C27.2744 0.333008 27.8874 0.588982 28.3993 1.10093C28.9113 1.61284 29.1672 2.22581 29.1672 2.93984V8.16318H27.0733V2.93984C27.0733 2.79026 27.0252 2.66738 26.929 2.57122C26.8329 2.47505 26.71 2.42697 26.5604 2.42697H3.44082C3.29123 2.42697 3.16836 2.47505 3.07219 2.57122C2.97603 2.66738 2.92794 2.79026 2.92794 2.93984V26.0594C2.92794 26.209 2.97603 26.3319 3.07219 26.4281C3.16836 26.5242 3.29123 26.5723 3.44082 26.5723H26.5604C26.71 26.5723 26.8329 26.5242 26.929 26.4281C27.0252 26.3319 27.0733 26.209 27.0733 26.0594V20.8532H29.1672V26.0594C29.1672 26.7735 28.9113 27.3864 28.3993 27.8983C27.8874 28.4103 27.2744 28.6663 26.5604 28.6663H3.44082ZM17.5396 21.7346C16.7482 21.7346 16.0692 21.4541 15.5024 20.8931C14.9357 20.332 14.6524 19.6553 14.6524 18.8628V10.1535C14.6524 9.36112 14.9357 8.6844 15.5024 8.12334C16.0692 7.56229 16.7482 7.28176 17.5396 7.28176H27.9792C28.7792 7.28176 29.4625 7.56229 30.029 8.12334C30.5955 8.6844 30.8788 9.36112 30.8788 10.1535V18.8628C30.8788 19.6553 30.5955 20.332 30.029 20.8931C29.4625 21.4541 28.7792 21.7346 27.9792 21.7346H17.5396ZM28.2719 19.6407C28.4144 19.6407 28.5355 19.5926 28.6352 19.4964C28.735 19.4003 28.7848 19.2774 28.7848 19.1278V9.88855C28.7848 9.74611 28.735 9.62502 28.6352 9.5253C28.5355 9.42558 28.4144 9.37572 28.2719 9.37572H17.2592C17.1167 9.37572 16.9956 9.42558 16.8959 9.5253C16.7962 9.62502 16.7463 9.74611 16.7463 9.88855V19.1278C16.7463 19.2774 16.7962 19.4003 16.8959 19.4964C16.9956 19.5926 17.1167 19.6407 17.2592 19.6407H28.2719ZM21.9217 17.0787C22.6346 17.0787 23.2415 16.8263 23.7426 16.3215C24.2437 15.8167 24.4942 15.2037 24.4942 14.4826C24.4942 13.7649 24.2404 13.1585 23.7327 12.6633C23.2251 12.1682 22.6192 11.9206 21.9151 11.9206C21.2022 11.9206 20.5923 12.1682 20.0855 12.6633C19.5788 13.1585 19.3254 13.7649 19.3254 14.4826C19.3254 15.2037 19.5778 15.8167 20.0827 16.3215C20.5875 16.8263 21.2005 17.0787 21.9217 17.0787Z" fill="white"/>
</svg>
