<svg width="30" height="30" viewBox="0 0 30 30" fill="none" xmlns="http://www.w3.org/2000/svg">
<path fill-rule="evenodd" clip-rule="evenodd" d="M6.02228 1.66279C5.82944 1.46995 5.61763 1.30766 5.39284 1.17592C6.15199 0.900154 6.97129 0.749756 7.82572 0.749756L22.0758 0.749756C26.0108 0.749756 29.2008 3.93974 29.2008 7.87479V15.9359L29.1778 15.9129C27.9605 14.6955 25.9868 14.6955 24.7694 15.9129C24.0471 16.6352 23.7534 17.6237 23.8882 18.5626L16.2861 18.5624C14.5646 18.5624 13.1689 19.9579 13.1689 21.6795C13.1688 23.4011 14.5644 24.7968 16.286 24.7968L23.8883 24.797C23.7534 25.7359 24.0471 26.7246 24.7694 27.447C25.0919 27.7694 25.4674 28.0065 25.8679 28.1581C24.7697 28.8498 23.4695 29.2499 22.0758 29.2499H7.82573C3.89068 29.2499 0.700684 26.0599 0.700684 22.1249V12.2837L1.61388 13.1969C2.83123 14.4142 4.80493 14.4142 6.02227 13.1969C6.74464 12.4745 7.03836 11.4858 6.90343 10.5469L14.5057 10.5467C16.2273 10.5467 17.6229 9.15101 17.6228 7.42943C17.6228 5.70785 16.2271 4.31226 14.5056 4.3123L6.90347 4.31248C7.03829 3.37362 6.74456 2.38507 6.02228 1.66279ZM4.76274 11.9373C5.13873 11.5613 5.24375 11.017 5.07779 10.5469C5.01347 10.3648 4.90845 10.1937 4.76274 10.048L3.48041 8.7657L3.48025 8.76573L4.76258 10.0481C5.2843 10.5698 5.2843 11.4156 4.76258 11.9374C4.58657 12.1134 4.37368 12.23 4.14878 12.2873C4.37374 12.23 4.58669 12.1134 4.76274 11.9373ZM14.7749 8.7383C15.3837 8.61371 15.8416 8.07507 15.8416 7.42947C15.8416 6.69165 15.2434 6.09354 14.5056 6.09356L14.5054 6.09358C15.2433 6.09356 15.8414 6.69167 15.8414 7.4295C15.8414 8.07503 15.3836 8.61365 14.7749 8.7383ZM3.48056 6.09381L4.76274 4.81164C4.90851 4.66586 5.01356 4.49477 5.07787 4.31252C5.24372 3.84252 5.13867 3.29827 4.76274 2.92233C4.44989 2.60948 4.02048 2.48423 3.6143 2.54658C4.02043 2.48429 4.44977 2.60955 4.76258 2.92235C5.2843 3.44407 5.2843 4.28994 4.76258 4.81166L3.4804 6.09384L3.48056 6.09381ZM25.7139 24.797C25.548 25.2671 25.653 25.8114 26.029 26.1874C26.3298 26.4882 26.7383 26.6156 27.1304 26.5695C26.7383 26.6156 26.3298 26.4882 26.029 26.1874C25.5869 25.7453 25.5194 25.0705 25.8266 24.5573C25.7806 24.634 25.7431 24.7144 25.7139 24.797ZM16.286 23.0155L27.3113 23.0158L27.3113 23.0158L16.2861 23.0155C15.5483 23.0155 14.9501 22.4174 14.9502 21.6795C14.9502 21.5146 14.9801 21.3566 15.0348 21.2107C14.9801 21.3566 14.9501 21.5146 14.9501 21.6796C14.9501 22.4174 15.5482 23.0155 16.286 23.0155ZM26.029 19.0617L27.3111 20.3439H27.3112L26.029 19.0617C25.5954 18.6281 25.5222 17.9706 25.8093 17.4614C25.6187 17.7994 25.5869 18.2028 25.7138 18.5626C25.7781 18.7449 25.8832 18.916 26.029 19.0617Z" fill="#353A39"/>
</svg>
